<?xml version="1.0" standalone="yes"?>
<svg xmlns="http://www.w3.org/2000/svg" width="500" height="500">
<path style="fill:#179833; stroke:none;" d="M227 46C245.13 43.6586 265.34 36.7149 272.289 18C274.46 12.1536 274.996 6.17584 275 0C255.672 1.52542 239.142 9.20444 231.232 28C228.782 33.8215 228.145 39.8564 227 46M195 16C195 19.305 194.724 22.7864 195.637 26C199.415 39.2892 211.852 43.6442 224 46C223.266 29.1706 212.345 16.3695 195 16M142 32C148.383 51.9899 170.693 55.6295 188 50C180.41 32.0727 159.175 24.3965 142 32M232 67C246.021 69.6416 262.7 70.4982 273.907 59.8148C276.594 57.253 283.253 49.6695 280.867 45.5139C278.946 42.1662 270.385 42.1191 267 42.054C252.018 41.766 236.538 52.7585 232 67M226 52C226 61.7372 224.08 71.2938 224 81C212.809 73.1169 204.467 61.585 193 54C198.923 63.4799 206.552 72.1797 213.424 81C216.43 84.858 221.05 89.183 222.397 94C223.203 96.8859 222.172 100.073 222.039 103C221.705 110.369 220.88 117.66 220.17 125C218.036 147.049 215.002 169.852 215 192C206.224 184.877 197.682 177.482 189 170.247C184.785 166.734 178.802 163.167 176.514 157.996C173.329 150.798 176.188 142.402 174 135C171.402 140.787 171.052 148.688 171 155C166.072 151.286 161.626 146.577 156 144C167.493 160.51 183.022 174.879 196.285 190C201.279 195.694 209.271 201.903 212.142 209C213.712 212.881 212.567 217.023 212.169 221C211.5 227.688 211 234.274 211 241C190.515 236.261 169.999 228.849 150 222.33C143.856 220.328 132.138 219.074 127.603 214.298C125.344 211.918 125.558 207.079 125.13 204C123.984 195.751 122.357 187.317 122 179C120.231 183.215 121 188.464 121 193C121 199.748 120.288 206.295 120 213C112.213 210.467 104.103 207.197 96 206C101.246 210.331 108.775 212.709 115 215.424C123.248 219.023 131.291 223.618 140 226C136.745 239.633 135.104 255.024 134 269C136.648 264.792 137.686 259.649 139.424 255C142.476 246.838 146.035 238.492 148 230C161.773 237.342 176.687 243.331 191 249.576C195.632 251.597 205.166 254 207.971 258.394C209.908 261.426 208.32 265.71 208.09 269C207.529 276.992 206.427 285.004 206.039 293C204.368 327.371 200.264 361.668 197.91 396C196.226 420.578 192.306 445.363 192.004 470C191.893 479.067 187.9 490.112 198.004 495.084C211.863 501.905 229.299 500.567 244 498.079C249.675 497.119 257.728 495.353 259.566 488.96C260.936 484.199 259.626 478.787 259.17 474C258.258 464.422 257.461 454.608 257.039 445C255.591 411.977 252.222 378.977 249.91 346C249.258 336.697 248.713 327.279 247.83 318C247.282 312.235 245.948 305.821 246.318 300.043C246.589 295.818 250.6 294.597 254 293.319C262.012 290.309 270.034 287.332 278 284.203C280.922 283.055 285.226 280.578 288.424 281.693C291.934 282.916 295.123 286.524 298 288.789C304.536 293.936 310.946 299.592 318 304C311.577 294.291 302.179 286.879 296 277C308.58 273.566 320.867 267.97 333 263.203C356.771 253.864 380.72 243.914 405 236C399.634 234.37 391.42 237.813 386 239.13C371.008 242.771 356.039 246.561 341 250C340.89 236.653 339 223.387 339 210L337 210C336.285 219.061 334.137 227.964 333.166 237C332.706 241.285 332.923 247.109 330.143 250.697C326.176 255.815 313.96 256.472 308 257.884C286.944 262.875 265.428 270.112 244 273C243.937 250.106 240.477 226.849 238.91 204C238.375 196.185 234.843 184.488 237.603 177C240.381 169.464 250.418 162.582 256 157C270.622 142.378 288.076 127.927 300 111C283.006 121.618 267.8 136.095 252 148.424C246.479 152.732 241.255 157.807 235 161C234.93 135.525 231.585 109.359 229.17 84C228.223 74.0548 229.924 61.264 226 52M164 78C178.903 77.6825 185.537 68.3524 189 55C175.403 55.2896 164.126 63.9011 164 78M276 63C276.052 81.8301 286.371 100.057 307 101C306.949 82.4219 296.332 63.422 276 63M310 103C323.075 105.535 337.389 106.742 347.985 96.8951C350.599 94.4653 357.341 87.7206 354.867 83.564C353.146 80.6723 346.916 80.7913 344 80.429C329.238 78.5952 314.92 89.582 310 103M136 85C136.472 90.9854 137.188 97.403 139.475 103C145.11 116.787 158.418 122.366 172 125C171.939 102.911 158.143 86.75 136 85M263 137C265.38 132.707 268.275 128.675 269.899 124C272.217 117.327 272.397 110.524 269.471 104.001C268.42 101.658 266.283 97.4191 263.053 98.3457C260.035 99.2116 258.088 103.445 256.81 106C252.24 115.136 252.836 131.719 263 137M178 126C191.44 125.714 201.176 118.534 203 105C190.285 105.554 179.349 112.554 178 126M111 123C116.139 140.302 133.12 141.886 148 139C141.017 124.324 126.225 118.174 111 123M87 135C87.1694 155.465 99.5902 170.249 120 173C119.17 153.971 107.584 135.173 87 135M154 142L155 143L154 142M127 176C138.674 179.701 150.903 179.105 158 168C147.953 162.733 130.723 162.773 127 176M340 198C356.268 194.136 366.05 181.583 364 165C345.892 166.815 340 182.098 340 198M80 174C80.0095 188.331 86.7652 197.619 101 201C100.703 186.605 94.4825 176.818 80 174M39 182C43.5668 194.045 56.1669 202.527 69 202.957C74.8586 203.153 80.3661 201.288 86 200C75.7758 182.312 57.9368 174.707 39 182M289 184C294.602 195.773 306.636 204.917 320 204.921C325.435 204.923 330.757 203.198 336 202C328.001 184.536 306.342 174.898 289 184M413 231C438.782 228.962 460.924 213.699 461 186C434.701 186.003 414.158 204.103 413 231M397 233C407.122 225.85 415.162 211.69 412.1 199C411.355 195.909 409.702 188.47 405.788 187.921C401.596 187.334 397.705 194.041 395.93 197C388.868 208.769 390.321 221.514 397 233M370 198C365.777 212.992 367.754 229.121 384 236C385.972 221.357 387.804 203.685 370 198M61 228C75.4273 227.879 84.1084 219.036 86 205C72.4384 205.62 61.6393 214.009 61 228M93.6667 205.333C93.2223 205.778 94.2777 205.722 94.3333 205.667C94.7779 205.222 93.7222 205.278 93.6667 205.333M291 223C303.099 230.035 322.462 231.877 330 217C317.436 210.581 298.363 207.255 291 223M342 225C348.779 227.86 354.444 227.033 359 221C352.113 218.422 346.624 218.876 342 225M301 245C312.703 247.173 325.571 246.027 330 233C318.104 232.061 305.449 231.077 301 245M111 233C111.112 246.513 118.026 256.906 132 259C131.89 245.772 125.615 233.344 111 233M406.667 234.333C406.222 234.778 407.278 234.722 407.333 234.667C407.778 234.222 406.722 234.278 406.667 234.333M411 238C414.567 257.762 434.529 265.292 452 262C448.936 241.637 428.583 235.778 411 238M399 242C395.382 254.876 395.397 274.787 412 278C415.05 263.217 414.183 249.568 399 242M100 267C110.589 273.157 123.711 274.732 132 264C122.213 258.309 106.15 254.122 100 267M101 305C118.852 303.579 130.594 292.85 133 275C115.365 275.769 101.051 286.637 101 305M137 276C137 291.811 140.781 305.005 158 309C158 304.771 158.508 300.154 157.61 296C155.356 285.58 146.48 279.228 137 276M319 297C330.891 300.802 344.328 301.824 351 289C338.465 284.923 326.874 284.68 319 297M323 306C330.537 321.84 344.937 327.094 361 322C353.45 307.891 338.744 299.357 323 306M315 342C321.351 336.116 323.026 327.065 320.239 319C319.355 316.441 317.386 311.207 314.012 311.207C310.741 311.207 308.938 316.467 308.39 319C306.601 327.27 310.603 335.333 315 342z"/>
</svg>
