<svg version="1" xmlns="http://www.w3.org/2000/svg" width="666.667" height="666.667" viewBox="0 0 500.000000 500.000000"><path d="M262.3 2c-3.9 1-9 2.8-11.4 4-6.4 3.3-14.5 11.5-17.8 18.2-3 5.9-6.8 20.4-5.7 21.5 1.1 1.2 15.8-2.7 23.1-6.1 14.4-6.7 23.3-18.6 24.3-32.8l.5-6.8-2.9.1c-1.6 0-6.1.9-10.1 1.9zM194.3 16.6c-1 2.6 1.9 12.3 4.8 16.4 4.5 6.2 16.9 13 23.7 13 3.5 0-.9-14.4-6.3-20.8-4.9-5.9-20.8-12.1-22.2-8.6zM151.5 28.6c-1.1.3-3.9 1.2-6.3 2l-4.2 1.6 1.7 3c2.6 4.3 11.3 12.2 16.4 14.8 6 3.2 16.9 3.8 23.8 1.5 2.8-.9 5.1-2.1 5.1-2.5 0-.5-2.7-3.9-6.1-7.5-4.1-4.3-8.1-7.5-12.3-9.5-5.9-2.8-14-4.4-18.1-3.4zM257 43.3c-1.9.8-4.8 1.9-6.3 2.6-5.7 2.3-20.4 18.7-18.5 20.6 1.4 1.4 13.3 2.6 19.8 2.1 13.2-1.1 23.4-7.8 29-19l2-4.1-3.1-1.3c-4.8-2-18.7-2.5-22.9-.9z"/><path d="M225.1 66.2c-.7 7.9-1.4 14.5-1.6 14.6-.2.2-6.4-5.2-13.7-12-17.8-16.5-19.1-17.4-13.2-9.8 2.8 3.6 9.9 12.7 15.7 20.2l10.6 13.7-4.2 49.1c-2.3 26.9-4.4 49-4.7 49-.4 0-8.9-7-19.1-15.4-21-17.7-19.7-15.3-19.9-34.6-.1-12.6-1.2-11.6-3 2.7-.7 5.7-1.7 10.3-2.1 10.3-.4 0-3.6-2.4-7.1-5.3-10.3-8.6-10.6-8.6-3.2-.2 3.9 4.4 17.6 19.7 30.3 33.9 17.8 20.1 23.1 26.6 23 28.5-.3 9.6-2.6 29.6-3.4 29.5-3.1-.4-81.2-24.9-82.1-25.8-.6-.6-2.2-9-3.5-18.6l-2.4-17.5-.6 16.8c-.4 9.2-.8 17-1 17.1-.2.2-6.7-1.5-14.4-3.9s-14.1-4.3-14.2-4.1c-.2.1 9.9 4.8 22.5 10.5 12.5 5.6 23.4 10.6 24.2 11.1 1.2.8 1.1 3.2-.9 19.2-1.2 10.1-2.5 19.6-2.7 21.3-.3 1.6 2.7-5.6 6.5-16 3.9-10.5 7.2-19.3 7.3-19.6.3-.7 58.5 25.4 59.9 26.8.5.5-1.4 27.6-4.1 60.3-4.8 57.3-11.2 138.5-12.6 159.7-.5 8.6-.4 10.7 1 12.8 3.4 5.2 13.1 8.3 28.8 9.2 18.1 1 35.2-3.1 38-9.2.9-2 .7-9.2-1.1-33.8-3-43.5-10.9-148-11.7-154.8l-.6-5.5 20.7-7.9c18.3-6.9 21-7.7 22.8-6.5 1.1.7 8.4 6.2 16.1 12.3 14.7 11.6 14.7 11.5-.6-6.1-4.9-5.5-8.8-10.2-8.8-10.4 0-.3 25.2-10.1 56-21.8 30.8-11.7 55.9-21.5 55.7-21.7-.2-.2-6 1-12.8 2.7-37 8.9-53.4 12.8-53.7 12.5-.2-.2-.9-10.2-1.6-22.2-.7-12-1.5-21.1-1.8-20.3-.4.8-2 11.2-3.7 23-1.7 11.8-3.4 21.7-3.9 22-.4.4-8.8 2.6-18.7 5-9.9 2.3-28.9 7-42.3 10.2-13.4 3.3-24.5 5.9-24.7 5.7-.1-.2-2-22.2-4-48.7l-3.8-48.4 33.4-33.4c18.4-18.4 33.1-33.4 32.6-33.4-.4 0-10.5 7.8-22.4 17.3-39.3 31.2-43.8 34.7-44.5 34.7-.5 0-.8-1.1-.8-2.4 0-4.1-8-105.9-8.3-106.3-.2-.2-.9 6.1-1.6 13.9z"/><path d="M178.6 57C170 60.4 164 67.8 164 75.1v3.2l4.7-.7c9.7-1.3 16.9-8.2 19.1-18.4 1-4.1.9-4.2-1.7-4.2-1.4.1-4.8 1-7.5 2zM276.2 69.3c1.3 15.9 13.2 29.3 28.4 32l3 .6-.8-6.6C304.3 76.7 292.2 63 278.1 63c-2.3 0-2.4.2-1.9 6.3zM333.1 81.5c-8.3 2.3-15 7.5-20.3 15.8-3.7 5.8-3.3 6.3 6 7.3 16.7 1.8 29.3-4.1 35.9-16.8l2.2-4.3-2.7-1.1c-4.8-2.1-15.2-2.5-21.1-.9zM136 86.8c0 4.2 2.1 12.8 4.4 17.6 2.7 5.9 7.9 11.5 13.9 15 4.9 2.9 16.6 6.2 17.7 4.9.4-.4.2-3.6-.6-7-3.8-18.4-14.6-29.7-30.1-31.8-4.8-.6-5.3-.5-5.3 1.3zM261.3 99.2c-8.8 9.5-9.4 26.4-1.4 36.7l1.9 2.5 3.5-5.6c7.5-11.6 8.5-21.8 3-30.7-3.4-5.4-4.3-5.8-7-2.9zM195 105.9c-7.2 2.2-12.8 7.1-15.4 13.3-2.7 6.3-2.3 7.2 3 6.4 10-1.3 18.7-8.7 20.1-17 .5-3.5.4-3.6-2.3-3.5-1.6 0-4 .4-5.4.8zM114.3 122.1c-1.8.5-3.3 1.4-3.3 2 0 .6 1.6 3.2 3.4 5.8 4.4 6 11.8 10.1 19.4 10.8 5.8.5 14.2-1.1 14.2-2.7 0-2.1-10.5-12.1-15.2-14.4-5.5-2.8-12.3-3.3-18.5-1.5zM87.4 140.3c1.5 13.5 8.1 23.4 18.9 28.6 3.4 1.6 7.9 3.2 10 3.6 4.3.7 4.3.5 2.6-7.7-3.5-16.3-14.2-28-27-29.5l-5.2-.6.7 5.6zM139.3 165.2c-3.8.8-13.3 7.8-13.3 9.7 0 1.4 7.6 3.1 13.9 3.1 7.3 0 12.8-2.4 16.1-7l2.2-3-3.4-1.4c-4.8-1.9-10.7-2.5-15.5-1.4zM358.5 166.1c-11.2 4.2-17.5 12.6-18.3 24.5-.3 4.8-.1 7.4.6 7.4.6 0 3.1-.9 5.6-2 5.7-2.4 13.1-9.2 15.7-14.3 2.3-4.5 3.4-12.3 2.2-15.3l-.8-2.2-5 1.9zM80 177.6c0 11.1 6.8 19.4 18.8 22.9 2 .6 2.2.3 2.2-3.2-.1-8.7-5.2-17.2-12.4-20.8-7.1-3.5-8.6-3.3-8.6 1.1zM45 179.8c-3 1-5.5 2.3-5.5 2.9 0 2.3 6.5 10.3 11.2 13.7 6.5 4.9 13.9 7 22.2 6.4 3.6-.3 8.1-1.2 10-1.9l3.3-1.4-4.3-5.3c-11.2-13.4-24.3-18.5-36.9-14.4zM294.8 181.5c-2.6.9-5 2-5.3 2.6-1.1 1.6 7.3 11.5 12.6 14.9 9.2 6 17.7 7.3 28.1 4.4l5.8-1.7-1.8-2.9c-2.7-4.7-12.2-12.9-18-15.6-6.6-3-15.1-3.7-21.4-1.7zM452.5 186.1c-15.8 2.6-28.1 11.5-34.4 24.9-3 6.2-5.9 18.6-4.7 19.8 1.3 1.2 17-2.7 23.2-5.8 7.6-3.7 15.3-10.5 18.8-16.4 3-5.1 5.6-14.4 5.6-19.8 0-4.2.1-4.2-8.5-2.7zM400.7 191c-8.8 9.8-11.4 19.7-8.3 31.3 1 3.5 2.5 7.5 3.5 9l1.7 2.7 4.9-5.8c7.1-8.4 9.9-15.1 9.9-23.7 0-5.2-.6-8.2-2.3-11.7-3.6-7.4-4.2-7.6-9.4-1.8zM368.9 201.7c-2.1 6-1.6 15.2 1 20.6 2 4.2 11.1 13.7 13.1 13.7 1.5 0 3.3-11.3 2.7-17.1-.7-8.5-5.4-16.1-11.9-19.5-3.6-1.9-3.5-1.9-4.9 2.3zM77.9 206.4c-9.5 3.4-15.3 9.5-16.5 17.3l-.7 4.3h3.4c4 0 11.4-3.2 14.7-6.3 3-2.8 5.8-8.2 6.7-13 .7-3.4.5-3.7-1.6-3.7-1.3.1-4 .7-6 1.4zM304.7 212.1c-6.3 1.5-14.8 8.3-13.3 10.8.3.5 2.7 1.9 5.3 3.2 9.6 4.5 21.8 2.5 30.3-5 3.4-3 3.5-3.1 1.5-4.6-2.5-2-13.9-5.5-17.4-5.4-1.4.1-4.3.5-6.4 1zM345.3 221.1c-4.5 2.9-4.2 4.6 1 5.4 4.8.7 8.4-.3 11-3.3 1.8-2 1.8-2.1-.2-3.1-3.1-1.7-8.3-1.3-11.8 1zM111 236.5c0 5.5 2.1 11 5.8 14.9 2.6 2.8 11.4 7.6 14 7.6 3.2 0-.3-14.2-4.8-19.4-3-3.4-7.2-5.8-12.2-7-2.7-.6-2.8-.5-2.8 3.9zM310.2 234.1c-3.7 1.9-9.2 7.9-9.2 10.1 0 2.3 14.6 2.6 18.8.4 3-1.5 10.2-9 10.2-10.5 0-2.8-14.1-2.8-19.8 0zM412.7 237.8l-2.8.7 3.6 6c7.6 12.6 16.6 18.7 27.8 18.8 11.5.1 12.6-1.4 7.8-9.9-3.5-6-8.9-11-14.9-13.6-4.6-2.1-16.7-3.2-21.5-2zM398.6 242.9c-1.2 1.9-2.1 12.8-1.5 17.4 1.1 6.9 3.9 11.7 9.3 15.6l4.6 3.3 1.5-3.6c.8-1.9 1.5-6.4 1.5-9.9 0-8-3.4-15.3-9.4-20.2-4.6-3.8-5.2-4-6-2.6zM108.6 259.4c-2.2.8-5.1 2.7-6.5 4.1-2.6 2.6-2.6 2.6-.6 4.2 7.9 6.1 20.6 5.6 28.9-1.1 2.4-1.9 1.4-3.3-4-5.6-6.2-2.7-13.1-3.3-17.8-1.6zM122 276.9c-13 4.1-21 13.6-21 24.8v3.5l4.8-.7c13.9-2 24.2-12 26.6-25.8.7-3.6.6-3.7-2.1-3.6-1.5 0-5.3.8-8.3 1.8zM136.9 278.2c-.5 12.3 3.3 21.8 10.8 26.7 2.6 1.7 5.2 3.1 5.9 3.1.7 0 1.9.3 2.8.6 1.3.5 1.6-.3 1.6-5.2 0-13-5.3-20.9-17.2-25.9-3.7-1.5-3.8-1.5-3.9.7zM327.1 289.2c-3 1.8-6.1 4.3-6.9 5.5-1.3 2.1-1.2 2.3 1.3 3.3 1.6.6 5.4 1.3 8.6 1.7 7.4.7 13.6-1.4 18-6.4l3.1-3.6-2.8-1.5c-1.6-.8-5.8-1.7-9.4-1.9-6-.4-6.9-.2-11.9 2.9zM325.3 304.7c-3.1.6-2.9 2.1 1 7 4 5 8 8.4 12.7 10.8 4 2.1 14.8 2.5 19.3.6l2.8-1.1-1.8-3.2c-2.8-4.9-9-10.8-13.6-12.9-4-1.8-14.2-2.4-20.4-1.2zM312.3 311.2c-6.1 7.7-5.3 19.7 2 29.2 1.3 1.8 1.6 1.7 4.2-2.9 4.1-6.9 4.1-15.4-.1-22.1-3.2-5.2-4.6-6.1-6.1-4.2z"/></svg>