<svg xmlns="http://www.w3.org/2000/svg" width="173.85" height="100.812" viewBox="0 0 173.85 100.812">
  <defs>
    <style>
      .cls-1 {
        fill-rule: evenodd;
      }
    </style>
  </defs>
  <path id="_2x_logo_2x.png_50_1x_logo.png_svg_logo.svg" data-name="@2x/logo@2x.png, 50% @1x/logo.png, svg/logo.svg" class="cls-1" d="M1513.01,64.9V60.156h2a3.256,3.256,0,0,1,1.09.126,1.173,1.173,0,0,1,.55.443,1.352,1.352,0,0,1,.2.756,1.246,1.246,0,0,1-.32.9,1.544,1.544,0,0,1-.92.426,2.276,2.276,0,0,1,.5.394,4.546,4.546,0,0,1,.54.78l0.58,0.919h-1.13l-0.69-1.033a7.352,7.352,0,0,0-.5-0.7,0.833,0.833,0,0,0-.28-0.2,1.522,1.522,0,0,0-.48-0.053h-0.2V64.9h-0.94Zm0.94-2.744h0.71a4.423,4.423,0,0,0,.83-0.045,0.547,0.547,0,0,0,.28-0.187,0.576,0.576,0,0,0,.11-0.382,0.528,0.528,0,0,0-.11-0.362,0.562,0.562,0,0,0-.29-0.191,4.8,4.8,0,0,0-.78-0.032h-0.75v1.2Zm-4.12.484a5.035,5.035,0,1,0,5.04-5.046A5.055,5.055,0,0,0,1509.83,62.644Zm0.54,0a4.5,4.5,0,1,1,4.5,4.512A4.515,4.515,0,0,1,1510.37,62.644Zm-148.75-2.916c-1.17-.085-2.91,1.053-3.45,1.519s-1.54-.218-2.42.786-1.6.914-1.66,1.344c-0.08.677-.7,1.44-2.03,2.48a5.013,5.013,0,0,0-1,2.771c0,0.672-.16,2.977,1.12,4.447,1.41,1.64,4.91,3.195,4.78,5.924s0.09,8.652,2.04,12.174c1.16,2.1.67,7.981,0.62,9.373-0.08,2.378,1.54,6.2.17,9.227s-2.83,8.435-1.79,12.64,0.58,8.984.58,11.212c0,2.94,2.68,8.09-.67,12.306-2.99,3.77-2.45,6.293-1.78,7.473s4.27,4.441,7.19,4.278c4.49-.248,6.31-2.105,9.02-1.428a38.671,38.671,0,0,0,14.72.169c4.94-1.088,9.33.532,11.89,0.835,2.45,0.3,6.56-2.2,6.85-9.064,0.21-4.792-.04-5.711.05-9.953,0.08-4.121,3.55-5.077,4.11-9.989,0.37-3.28-.04-4.091.83-4.115,1.13-.048.96,2.88,1,6,0.04,3.1-.21,5.083,2.17,7.6,2.36,2.517,1.98,4.532,3.07,7.769s2,5.416,7.02,7.769,3.46,0.538,9.89,3.267a13.588,13.588,0,0,0,9.82-.877c1.75-.8,4.13.133,6.77-1.852,2.12-1.591,3.58.993,6.95-3.69,1.53-2.149,1.66-5.4,2.27-8.272,0.21-.968.52-2.2-0.86-6-1.13-3.116-1.89-7.043-5.03-5.5-2.58,1.258-3.87,5.154-6.04,7.6-2.41,2.716-6.22,3.606-12.67,2.263-5.29-1.108-5.07-4.036-6.32-7.128-1.16-2.9-2.23-3.534-2.36-4.629s-1.13-.308-0.3-3.31c0.62-2.232-2.1-3.623.33-5.209,2.13-1.386,5.4.127,9.69,1.216s5.69,1.179,11.14-.375,8.93-.55,11.4-0.382c2.44,0.164,7.72.382,11.25-1.088a11.976,11.976,0,0,1,.66,5.917c-0.33,3.86.76,5.415,2.37,8.223,1.63,2.82,2.58,4.411,2.58,6.6,0,1.386,1.08,2.051,1.71,2.6a2.142,2.142,0,0,1,.66,1.222,4.471,4.471,0,0,1,1.33,2.008c0.31,0.763,3.13,3.571,4.04,4.824a12.222,12.222,0,0,0,2.86,3.067c1.42,1.095,5.04,3.782,7.65,4.072s5.04-.12,7.44.26c2.42,0.37,3.71.836,6.44-1.6,1.08-.961,3.43-2.474,4.54-2.51,1.13-.042,5.03-2.82,6.69-4.834s5.56-6.965,5.16-10.91c-0.37-3.654-1.42-4.035-2.54-6.051-1.56-2.825-5.87-1.185-6.78.085-0.54.756-2.48,0.907-4.15,2.9-1.2,1.427-3.62,4.87-4.46,5.494s-1.98.139-3.61,1.143a3.414,3.414,0,0,1-3.2-.26,8.046,8.046,0,0,0-3.46-1.38c-0.74-.085-0.72-1.016-2.8-2.4a9.72,9.72,0,0,1-2.37-2.347,7.243,7.243,0,0,1-1.93-3.909,12.433,12.433,0,0,0-3.48-6.093c-1.42-1.168-.35-5.621,1.21-5.367,1.53,0.248,1.68-.423,2.48,0a7.7,7.7,0,0,0,6.65-.127c0.83-.381,5.79-0.8,6.85-0.381,1.09,0.423,2.56.212,3.3,0.508s2.23,1.471,3.65,1.506a56.125,56.125,0,0,0,7.07,0,14.364,14.364,0,0,1,3.33-.544c1.58-.043,3.56-0.508,3.74-1.718a23.122,23.122,0,0,1,1-5.754c0.79-2.058-.17-4.792-0.68-7.594-0.5-2.819.09-5.839,0.26-8.277s-1.57-5.924-4.07-8.441-5.73-7.176-7.82-9.275a12.128,12.128,0,0,0-9.73-4.163c-2.75.085-5.08,1.47-8.89,1.519-3.83.042-5.09,0.629-5.66,1.3s-2.22.332-4.08,2.305c-1.36,1.471-3.42,2.7-4.44,6.008-0.79,2.559-2.1,1.99-3.74,3.818a11.521,11.521,0,0,0-2.84,4.623,28.031,28.031,0,0,0-.31,5.79c0.03,1.471-1.2,2.56-1.3,3.945-0.08,1.265-2.2,1.634-3.57,1.634s-4.08.508-4.08-2.1,0.42-5.457-1.38-7.551c-1.77-2.1-1.4-5.918-1.52-7.514s-0.57-4.629-5.32-7.346c-3.25-1.852-3.12-3.721-6.04-6.347-2.53-2.257-3.64-2.305-4.07-2.305a16.23,16.23,0,0,1-4.48-.3,13.2,13.2,0,0,0-8.36,1.555c-2.57,1.513-2.68,3.134-8.2,4.913-4.02,1.3-5.77,3.315-6.3,5.246-0.55,1.936-1.63,4.411-5.5,8.228s-2.91,8.192-2.7,9.826,0.58,5.373-4.24,5.632-7.61.158-8.69,4.744,0.92,7.152-1.41,10.909c-2.5,4.03-4.32,7.055-4.11,12.012s-0.64,5.185-3.54,6.51c-1.29.581-2.12-.763-4.11-1.09a58.156,58.156,0,0,0-6.58-.846c-0.53.042-2.56-2.79-2.24-5.621,0.34-2.862,1.38-6.807.38-10.413a20.059,20.059,0,0,1,.75-12.477c1.7-4.49,1.49-9.947.12-14.57s0.48-6.65-1.54-12.967c-0.42-1.3-1.43-5.44.29-7.14,4.24-4.2,7.19-6.595,4.2-11.8s-2.95-6.124-8.35-6.843c-4.12-.544-4.8.46-6.53,0.714A9.329,9.329,0,0,1,1361.62,59.728Zm77.18,28.958c-1.51.084-2.06,2.953-4.68,3.679-2.92.805-3.04,1.93-3.52,3.7a10.271,10.271,0,0,1-3.59,5.452c-2.36,1.937-1.8,3.371-1.4,3.994,0.52,0.81,3.76.127,7.39,0.084s7.69,0.7,9.59,1.658c0.47,0.242,2.35-.085,3.55-0.569s3.24-.405,3.04-2.753c-0.2-2.329-3.64-4.876-3.47-9.312,0.03-1.089.36-2.3-1.85-2.989C1441.67,90.949,1441.03,88.57,1438.8,88.686Zm54.48,5.736a4,4,0,0,1,4.32-1.816c2.05,0.326,2.51-.575,4.16-0.284,1.63,0.284,1.99,2.444,4.18,3.63,2.33,1.247,2.33,1.779,2.29,2.663a13.608,13.608,0,0,0,1.15,6.456c0.56,0.865.05,1.494-1.36,1.494s-4.91-.6-6.47-0.043a4.723,4.723,0,0,1-3.2.043c-0.79-.164-1.95.369-2.39,0.163-1.38-.623-2.45-0.284-3.03-0.526a13.263,13.263,0,0,0-4.72-.889c-0.67-.158-1.17-1.615-0.67-2.584,0.46-.962.39-1.573,0.75-1.93C1488.96,100.1,1492.24,95.789,1493.28,94.422Z" transform="translate(-1351.06 -57.594)"/>
</svg>
