<svg height="90" viewBox="0 0 90 90" width="90" xmlns="http://www.w3.org/2000/svg" xmlns:xlink="http://www.w3.org/1999/xlink"><mask id="a" fill="#fff"><path d="m0 0h90v90h-90z" fill="#fff" fill-rule="evenodd"/></mask><path d="m84.836 24.072-3.466 8.473-18.057.011 3.506-8.697h17.908c-7.57-14.193-22.517-23.859-39.727-23.859-17.209 0-32.155 9.663-39.725 23.856h13.598c2.617 0 4.214 1.243 4.758 2.978l10.744 30.392 1.085 3.406 1.253-3.551 9.49-24.311c1.947-4.68 2.17-8.914 12.103-8.914h3.57l-8.831 21.58h22.183l-3.562 8.69-22.18.008-10.848 26.507h-6.621l-20.348-50.344c-1.319-3.087-3.209-4.229-7.099-5.067a44.807 44.807 0 0 0 -4.57 19.77c0 24.853 20.147 45 45 45s45-20.147 45-45a44.787 44.787 0 0 0 -5.164-20.928" fill="#004c97" fill-rule="evenodd" mask="url(#a)"/></svg>